<svg width="34" height="34" fill="none" xmlns="http://www.w3.org/2000/svg"><path fill-rule="evenodd" clip-rule="evenodd" d="M10.636 10.635c3.51-3.51 9.218-3.51 12.728 0s3.51 9.218 0 12.728-9.218 3.51-12.728 0-3.51-9.217 0-12.728zm6.35 11.603a.71.71 0 00.697-.697l.014-3.845h3.858a.71.71 0 00.697-.697.71.71 0 00-.697-.696h-3.858l.013-3.846a.71.71 0 00-.697-.696.71.71 0 00-.696.697l-.014 3.845-3.845-.014a.71.71 0 00-.697.697c0 .188.08.375.201.496.121.12.309.2.496.2l3.845.014-.013 3.845c0 .188.08.375.2.496.122.12.309.201.497.201z" fill="#193044"/></svg>