<svg width="24" height="24" fill="none" xmlns="http://www.w3.org/2000/svg"><path fill-rule="evenodd" clip-rule="evenodd" d="M5 3h4c1.103 0 2 .897 2 2v4c0 1.103-.897 2-2 2H5c-1.103 0-2-.897-2-2V5c0-1.103.897-2 2-2zm10 0h4c1.103 0 2 .897 2 2v4c0 1.103-.897 2-2 2h-4c-1.103 0-2-.897-2-2V5c0-1.103.897-2 2-2zM9 13H5c-1.103 0-2 .897-2 2v4c0 1.103.897 2 2 2h4c1.103 0 2-.897 2-2v-4c0-1.103-.897-2-2-2zm6 0h4c1.103 0 2 .897 2 2v4c0 1.103-.897 2-2 2h-4c-1.103 0-2-.897-2-2v-4c0-1.103.897-2 2-2z" fill="#fff"/><mask id="a" maskUnits="userSpaceOnUse" x="3" y="3" width="18" height="18"><path fill-rule="evenodd" clip-rule="evenodd" d="M5 3h4c1.103 0 2 .897 2 2v4c0 1.103-.897 2-2 2H5c-1.103 0-2-.897-2-2V5c0-1.103.897-2 2-2zm10 0h4c1.103 0 2 .897 2 2v4c0 1.103-.897 2-2 2h-4c-1.103 0-2-.897-2-2V5c0-1.103.897-2 2-2zM9 13H5c-1.103 0-2 .897-2 2v4c0 1.103.897 2 2 2h4c1.103 0 2-.897 2-2v-4c0-1.103-.897-2-2-2zm6 0h4c1.103 0 2 .897 2 2v4c0 1.103-.897 2-2 2h-4c-1.103 0-2-.897-2-2v-4c0-1.103.897-2 2-2z" fill="#fff"/></mask></svg>
