<svg width="24" height="24" fill="none" xmlns="http://www.w3.org/2000/svg"><path fill-rule="evenodd" clip-rule="evenodd" d="M10.139 15.69l-2.862-3c-.043-.045-.064-.101-.097-.151-.036-.054-.08-.102-.104-.162A1.007 1.007 0 017 12a1.011 1.011 0 01.294-.708l2.999-2.999a.999.999 0 111.414 1.414L10.414 11h5.585a1 1 0 110 2h-5.663l1.25 1.309a1 1 0 11-1.447 1.381zM21.998 12c0-5.515-4.485-10-10-10C6.486 2 2 6.485 2 12c0 5.514 4.487 10 10 10 5.514 0 10-4.486 10-10z" fill="#004853"/><mask id="a" maskUnits="userSpaceOnUse" x="1" y="2" width="21" height="20"><path fill-rule="evenodd" clip-rule="evenodd" d="M10.139 15.69l-2.862-3c-.043-.045-.064-.101-.097-.151-.036-.054-.08-.102-.104-.162A1.007 1.007 0 017 12a1.011 1.011 0 01.294-.708l2.999-2.999a.999.999 0 111.414 1.414L10.414 11h5.585a1 1 0 110 2h-5.663l1.25 1.309a1 1 0 11-1.447 1.381zM21.998 12c0-5.515-4.485-10-10-10C6.486 2 2 6.485 2 12c0 5.514 4.487 10 10 10 5.514 0 10-4.486 10-10z" fill="#fff"/></mask></svg>