<svg width="15" height="15" fill="none" xmlns="http://www.w3.org/2000/svg"><path fill-rule="evenodd" clip-rule="evenodd" d="M12.422 6.719H4.079l2.555-3.066a.703.703 0 10-1.08-.9L2.038 6.972c-.027.033-.041.072-.062.108-.017.03-.037.055-.05.087a.693.693 0 00-.05.252l-.001.003v.003c0 .085.02.17.051.251.013.033.033.058.05.088.02.036.035.075.062.108l3.516 4.219a.702.702 0 101.08-.9L4.079 8.125h8.343a.703.703 0 000-1.406z" fill="#004853"/><mask id="a" maskUnits="userSpaceOnUse" x="1" y="2" width="13" height="11"><path fill-rule="evenodd" clip-rule="evenodd" d="M12.422 6.719H4.079l2.555-3.066a.703.703 0 10-1.08-.9L2.038 6.972c-.027.033-.041.072-.062.108-.017.03-.037.055-.05.087a.693.693 0 00-.05.252l-.001.003v.003c0 .085.02.17.051.251.013.033.033.058.05.088.02.036.035.075.062.108l3.516 4.219a.702.702 0 101.08-.9L4.079 8.125h8.343a.703.703 0 000-1.406z" fill="#fff"/></mask></svg>