<svg width="20" height="20" fill="none" xmlns="http://www.w3.org/2000/svg"><path fill-rule="evenodd" clip-rule="evenodd" d="M15.833 15.03c0 .46-.374.833-.833.833H5a.834.834 0 01-.833-.834V9.196h11.666v5.833zM7.5 5.862a.833.833 0 11-1.666 0 .833.833 0 011.666 0zm3.333 0a.833.833 0 11-1.666 0 .833.833 0 011.666 0zM5 2.529a2.503 2.503 0 00-2.5 2.5v10c0 1.379 1.122 2.5 2.5 2.5h10c1.378 0 2.5-1.121 2.5-2.5v-10c0-1.378-1.122-2.5-2.5-2.5H5z" fill="#CFD8DC"/><mask id="a" maskUnits="userSpaceOnUse" x="2" y="2" width="16" height="16"><path fill-rule="evenodd" clip-rule="evenodd" d="M15.833 15.03c0 .46-.374.833-.833.833H5a.834.834 0 01-.833-.834V9.196h11.666v5.833zM7.5 5.862a.833.833 0 11-1.666 0 .833.833 0 011.666 0zm3.333 0a.833.833 0 11-1.666 0 .833.833 0 011.666 0zM5 2.529a2.503 2.503 0 00-2.5 2.5v10c0 1.379 1.122 2.5 2.5 2.5h10c1.378 0 2.5-1.121 2.5-2.5v-10c0-1.378-1.122-2.5-2.5-2.5H5z" fill="#fff"/></mask></svg>