<svg width="24" height="24" fill="none" xmlns="http://www.w3.org/2000/svg"><path fill-rule="evenodd" clip-rule="evenodd" d="M19 18.035c0 .552-.449 1-1 1H6c-.551 0-1-.448-1-1v-7h14v7zm-10-11a1 1 0 11-2 0 1 1 0 012 0zm4 0a1 1 0 11-2 0 1 1 0 012 0zm-7-4c-1.654 0-3 1.346-3 3v12c0 1.654 1.346 3 3 3h12c1.654 0 3-1.346 3-3v-12c0-1.654-1.346-3-3-3H6z" fill="#004853"/><mask id="a" maskUnits="userSpaceOnUse" x="3" y="3" width="18" height="19"><path fill-rule="evenodd" clip-rule="evenodd" d="M19 18.035c0 .552-.449 1-1 1H6c-.551 0-1-.448-1-1v-7h14v7zm-10-11a1 1 0 11-2 0 1 1 0 012 0zm4 0a1 1 0 11-2 0 1 1 0 012 0zm-7-4c-1.654 0-3 1.346-3 3v12c0 1.654 1.346 3 3 3h12c1.654 0 3-1.346 3-3v-12c0-1.654-1.346-3-3-3H6z" fill="#fff"/></mask></svg>
