<svg width="24" height="24" fill="none" xmlns="http://www.w3.org/2000/svg"><path fill-rule="evenodd" clip-rule="evenodd" d="M16.296 9.605l-4.569 6a1 1 0 01-.789.395h-.007c-.306 0-.596-.142-.786-.383l-2.433-3.108a1 1 0 111.575-1.232l1.633 2.087 3.784-4.97a1 1 0 011.591 1.211zM12 2C6.477 2 2 6.477 2 12s4.476 10 10 10c5.522 0 10-4.477 10-10S17.523 2 12 2z" fill="#004853"/><mask id="a" maskUnits="userSpaceOnUse" x="2" y="2" width="21" height="21"><path fill-rule="evenodd" clip-rule="evenodd" d="M16.296 9.605l-4.569 6a1 1 0 01-.789.395h-.007c-.306 0-.596-.142-.786-.383l-2.433-3.108a1 1 0 111.575-1.232l1.633 2.087 3.784-4.97a1 1 0 011.591 1.211zM12 2C6.477 2 2 6.477 2 12s4.476 10 10 10c5.522 0 10-4.477 10-10S17.523 2 12 2z" fill="#fff"/></mask></svg>