<svg width="24" height="24" fill="none" xmlns="http://www.w3.org/2000/svg"><path fill-rule="evenodd" clip-rule="evenodd" d="M14.714 8C14.32 8 14 7.619 14 7.15V3.978L17.742 8h-3.028zM15 18H9a1 1 0 010-2h6a1 1 0 110 2zm-6-6h3a1 1 0 010 2H9a1 1 0 010-2zm10.74-4.672l-4.444-5a.998.998 0 00-.74-.328h-8C5.147 2 4 3.122 4 4.5v15C4 20.878 5.147 22 6.556 22h10.888C18.854 22 20 20.878 20 19.5V8a1 1 0 00-.26-.672z" fill="#004853"/><mask id="a" maskUnits="userSpaceOnUse" x="4" y="2" width="16" height="20"><path fill-rule="evenodd" clip-rule="evenodd" d="M14.714 8C14.32 8 14 7.619 14 7.15V3.978L17.742 8h-3.028zM15 18H9a1 1 0 010-2h6a1 1 0 110 2zm-6-6h3a1 1 0 010 2H9a1 1 0 010-2zm10.74-4.672l-4.444-5a.998.998 0 00-.74-.328h-8C5.147 2 4 3.122 4 4.5v15C4 20.878 5.147 22 6.556 22h10.888C18.854 22 20 20.878 20 19.5V8a1 1 0 00-.26-.672z" fill="#fff"/></mask></svg>