<svg width="24" height="24" fill="none" xmlns="http://www.w3.org/2000/svg"><path fill-rule="evenodd" clip-rule="evenodd" d="M11.729 5.003c5.977-.187 9.5 5.387 10.139 6.499.176.309.176.687 0 .996-.854 1.488-4.07 6.358-9.597 6.499l-.246.003c-5.863 0-9.263-5.405-9.893-6.502a1.005 1.005 0 010-.996c.854-1.488 4.07-6.358 9.597-6.499zM12 15.5c-1.93 0-3.5-1.57-3.5-3.5s1.57-3.5 3.5-3.5 3.5 1.57 3.5 3.5-1.57 3.5-3.5 3.5zm0-5c-.827 0-1.5.673-1.5 1.5s.673 1.5 1.5 1.5 1.5-.673 1.5-1.5-.673-1.5-1.5-1.5z" fill="#CFD8DC"/><mask id="a" maskUnits="userSpaceOnUse" x="2" y="4" width="20" height="15"><path fill-rule="evenodd" clip-rule="evenodd" d="M11.729 5.003c5.977-.187 9.5 5.387 10.139 6.499.176.309.176.687 0 .996-.854 1.488-4.07 6.358-9.597 6.499l-.246.003c-5.863 0-9.263-5.405-9.893-6.502a1.005 1.005 0 010-.996c.854-1.488 4.07-6.358 9.597-6.499zM12 15.5c-1.93 0-3.5-1.57-3.5-3.5s1.57-3.5 3.5-3.5 3.5 1.57 3.5 3.5-1.57 3.5-3.5 3.5zm0-5c-.827 0-1.5.673-1.5 1.5s.673 1.5 1.5 1.5 1.5-.673 1.5-1.5-.673-1.5-1.5-1.5z" fill="#fff"/></mask></svg>