<?xml version="1.0" encoding="utf-8"?>
<!-- Generator: Adobe Illustrator 21.1.0, SVG Export Plug-In . SVG Version: 6.00 Build 0)  -->
<svg version="1.1" id="Layer_1" xmlns="http://www.w3.org/2000/svg" xmlns:xlink="http://www.w3.org/1999/xlink" x="0px" y="0px"
	 viewBox="0 0 60 60" style="enable-background:new 0 0 60 60;" xml:space="preserve">
<style type="text/css">
	.st0{fill:url(#Combined-Shape_1_);}
</style>
<title>Combined Shape</title>
<g id="workspace">
	<g id="_x31_.3" transform="translate(-157.000000, -40.000000)">
		<g id="Group-4" transform="translate(136.000000, 40.000000)">
			
				<radialGradient id="Combined-Shape_1_" cx="-241.05" cy="445.0003" r="1.5838" gradientTransform="matrix(60 0 0 -60 14514 26662.4004)" gradientUnits="userSpaceOnUse">
				<stop  offset="0" style="stop-color:#E8F54A"/>
				<stop  offset="1" style="stop-color:#004853"/>
			</radialGradient>
			<path id="Combined-Shape" class="st0" d="M70.5,0C76.3,0,81,4.7,81,10.5v39C81,55.3,76.3,60,70.5,60h-39C25.7,60,21,55.3,21,49.5
				v-39C21,4.7,25.7,0,31.5,0H70.5z M70.5,3.9h-39c-3.6,0-6.6,3-6.6,6.6v39c0,3.6,3,6.6,6.6,6.6h39c3.6,0,6.6-3,6.6-6.6v-39
				C77.1,6.9,74.1,3.9,70.5,3.9z M56.6,34.2c1.2,0,2.3,0.5,3.1,1.3c0.8,0.8,1.3,1.9,1.3,3.1c0,1.2-0.5,2.3-1.3,3.1
				c-0.7,0.7-1.7,1.2-2.8,1.3l-0.2,0H34.4c-1.2,0-2.3-0.5-3.1-1.3c-0.8-0.8-1.3-1.9-1.3-3.1c0-1.2,0.5-2.3,1.3-3.1
				c0.7-0.7,1.7-1.2,2.8-1.3l0.2,0H56.6z M62.7,26.5c0.3,0,0.5,0.1,0.6,0.4l8.5,13.9l0,0c0.2,0.3,0.1,0.7-0.2,0.9
				c-0.1,0.1-0.2,0.1-0.3,0.1h-8.6c-0.4,0-0.6-0.3-0.6-0.6V27.1C62.1,26.7,62.4,26.5,62.7,26.5z M37.2,36.2c-0.7,0-1.3,0.3-1.7,0.7
				c-0.4,0.4-0.7,1-0.7,1.7c0,0.7,0.3,1.3,0.7,1.7c0.4,0.4,1,0.7,1.7,0.7c0.7,0,1.3-0.3,1.7-0.7c0.4-0.4,0.7-1,0.7-1.7
				c0-0.7-0.3-1.3-0.7-1.7C38.4,36.5,37.8,36.2,37.2,36.2z M53.9,36.2c-0.7,0-1.3,0.3-1.7,0.7c-0.4,0.4-0.7,1-0.7,1.7
				c0,0.7,0.3,1.3,0.7,1.7c0.4,0.4,1,0.7,1.7,0.7c0.7,0,1.3-0.3,1.7-0.7c0.4-0.4,0.7-1,0.7-1.7c0-0.7-0.3-1.3-0.7-1.7
				C55.1,36.5,54.5,36.2,53.9,36.2z M45.8,17l5.7,6l0,5.8l6.1,0l0,1.6l3.5,0v2.4H31.9v-4l1.9,0l0-11.9H45.8z M44.2,19.5h-5.5V25h8.3
				v-2.4L44.2,19.5z"/>
		</g>
	</g>
</g>
</svg>
