<svg width="24" height="24" fill="none" xmlns="http://www.w3.org/2000/svg"><path fill-rule="evenodd" clip-rule="evenodd" d="M17.312 15.897l3.395 3.396a.999.999 0 11-1.414 1.414l-3.396-3.395A7.952 7.952 0 0111 19c-4.411 0-8-3.589-8-8s3.589-8 8-8 8 3.589 8 8a7.952 7.952 0 01-1.688 4.897zM11 5c-3.309 0-6 2.691-6 6s2.691 6 6 6 6-2.691 6-6-2.691-6-6-6z" fill="#CFD8DC"/><mask id="a" maskUnits="userSpaceOnUse" x="3" y="3" width="19" height="18"><path fill-rule="evenodd" clip-rule="evenodd" d="M17.312 15.897l3.395 3.396a.999.999 0 11-1.414 1.414l-3.396-3.395A7.952 7.952 0 0111 19c-4.411 0-8-3.589-8-8s3.589-8 8-8 8 3.589 8 8a7.952 7.952 0 01-1.688 4.897zM11 5c-3.309 0-6 2.691-6 6s2.691 6 6 6 6-2.691 6-6-2.691-6-6-6z" fill="#fff"/></mask></svg>