<svg width="24" height="24" fill="none" xmlns="http://www.w3.org/2000/svg"><path fill-rule="evenodd" clip-rule="evenodd" d="M19 18a1 1 0 11-2 0 1 1 0 012 0zm-7-3H4l.016-10H15l-.016 10H12zm-5 3a1 1 0 11-2 0 1 1 0 012 0zm13-5.52V15h-3v-4.919l3 2.399zm1.625-1.261L17 7.519V5c0-1.103-.813-2-1.813-2H3.812C2.813 3 2 3.897 2 5v10c0 .873.513 1.609 1.221 1.882C3.081 17.228 3 17.604 3 18c0 1.654 1.346 3 3 3s3-1.346 3-3c0-.353-.072-.686-.185-1h6.37A2.938 2.938 0 0015 18c0 1.654 1.346 3 3 3s3-1.346 3-3c0-.353-.072-.686-.185-1H21a1 1 0 001-1v-4a1 1 0 00-.375-.781z" fill="#222B45"/><mask id="a" maskUnits="userSpaceOnUse" x="2" y="3" width="20" height="18"><path fill-rule="evenodd" clip-rule="evenodd" d="M19 18a1 1 0 11-2 0 1 1 0 012 0zm-7-3H4l.016-10H15l-.016 10H12zm-5 3a1 1 0 11-2 0 1 1 0 012 0zm13-5.52V15h-3v-4.919l3 2.399zm1.625-1.261L17 7.519V5c0-1.103-.813-2-1.813-2H3.812C2.813 3 2 3.897 2 5v10c0 .873.513 1.609 1.221 1.882C3.081 17.228 3 17.604 3 18c0 1.654 1.346 3 3 3s3-1.346 3-3c0-.353-.072-.686-.185-1h6.37A2.938 2.938 0 0015 18c0 1.654 1.346 3 3 3s3-1.346 3-3c0-.353-.072-.686-.185-1H21a1 1 0 001-1v-4a1 1 0 00-.375-.781z" fill="#fff"/></mask></svg>
