<svg fill="none" xmlns="http://www.w3.org/2000/svg"><path fill-rule="evenodd" clip-rule="evenodd" d="M7.214 6.122h9.269a.654.654 0 100-1.307h-.178c0-1.737-.995-3.24-2.444-3.976l-.37 2.094a.341.341 0 11-.673-.119L13.24.422A.892.892 0 0012.48 0h-1.264c-.32 0-.601.169-.76.422l.422 2.392a.342.342 0 01-.673.118L9.836.84a4.454 4.454 0 00-2.444 3.975h-.178a.653.653 0 100 1.308zm9.096.813c-.206 2.404-2.124 5.277-4.462 5.277-2.337 0-4.255-2.873-4.461-5.277h8.923zM3 16.96c0-1.867 3.962-3.38 8.849-3.38 4.887 0 8.849 1.514 8.85 3.38 0 1.404-.002 2.608-3.765 3.118v-2.992c0-.673-.578-1.22-1.289-1.22H8.053c-.71 0-1.288.547-1.288 1.22v2.992C3.001 19.567 3 18.363 3 16.96zm12.645-.28h-2.781v1.827a.406.406 0 01-.407.406H11.24a.407.407 0 01-.407-.406v-1.828h-2.78c-.263 0-.476.183-.476.407v6.508c0 .225.213.407.475.407h7.593c.262 0 .475-.182.475-.407v-6.508c0-.224-.213-.407-.475-.407zm-.339 6.406H13.68v-.61h1.627v.61z" fill="#004853"/></svg>
