<svg width="40" height="40" fill="none" xmlns="http://www.w3.org/2000/svg"><path fill-rule="evenodd" clip-rule="evenodd" d="M26.667 21.667H20c-.92 0-1.666-.745-1.666-1.666v-6.667a1.666 1.666 0 113.333 0v5h5c.921 0 1.666.745 1.666 1.667 0 .921-.744 1.666-1.666 1.666zM20 3.334c-9.19 0-16.666 7.477-16.666 16.667 0 9.19 7.476 16.666 16.666 16.666 9.19 0 16.667-7.476 16.667-16.666 0-9.19-7.477-16.667-16.667-16.667z" fill="#E8F54A"/><mask id="a" maskUnits="userSpaceOnUse" x="3" y="3" width="34" height="34"><path fill-rule="evenodd" clip-rule="evenodd" d="M26.667 21.667H20c-.92 0-1.666-.745-1.666-1.666v-6.667a1.666 1.666 0 113.333 0v5h5c.921 0 1.666.745 1.666 1.667 0 .921-.744 1.666-1.666 1.666zM20 3.334c-9.19 0-16.666 7.477-16.666 16.667 0 9.19 7.476 16.666 16.666 16.666 9.19 0 16.667-7.476 16.667-16.666 0-9.19-7.477-16.667-16.667-16.667z" fill="#fff"/></mask></svg>