<svg width="24" height="24" fill="none" xmlns="http://www.w3.org/2000/svg"><path fill-rule="evenodd" clip-rule="evenodd" d="M19.407 17.993l1.3 1.3a.999.999 0 11-1.414 1.414L16.586 18 16 17.414l-1.345-1.345-.069-.069-2.502-2.502a1.502 1.502 0 01-1.581-1.581l-3.22-3.22-1.751-1.751-2.239-2.239a.999.999 0 111.414-1.414L6.42 5.006l1.465 1.465 4.031 4.031L12 10.5a1.502 1.502 0 011.498 1.584L17.414 16l1.993 1.993zM8.593 5.764l2.797 2.797c.199-.035.4-.06.61-.06 1.93 0 3.5 1.57 3.5 3.5 0 .208-.026.41-.061.61l2.682 2.682.834.834a15.623 15.623 0 002.913-3.63 1.004 1.004 0 000-.995c-.638-1.112-4.162-6.686-10.138-6.499a9.361 9.361 0 00-3.228.671l.09.09zm5.355 11.013l1.345 1.344.205.205a9.332 9.332 0 01-3.473.674c-5.863 0-9.263-5.405-9.893-6.503a1.004 1.004 0 010-.995 15.644 15.644 0 012.913-3.629l1.531 1.532 1.986 1.985A3.41 3.41 0 008.5 12c0 1.93 1.57 3.5 3.5 3.5.209 0 .411-.026.61-.062l1.269 1.27.069.07z" fill="#CFD8DC"/><mask id="a" maskUnits="userSpaceOnUse" x="2" y="2" width="20" height="19"><path fill-rule="evenodd" clip-rule="evenodd" d="M19.407 17.993l1.3 1.3a.999.999 0 11-1.414 1.414L16.586 18 16 17.414l-1.345-1.345-.069-.069-2.502-2.502a1.502 1.502 0 01-1.581-1.581l-3.22-3.22-1.751-1.751-2.239-2.239a.999.999 0 111.414-1.414L6.42 5.006l1.465 1.465 4.031 4.031L12 10.5a1.502 1.502 0 011.498 1.584L17.414 16l1.993 1.993zM8.593 5.764l2.797 2.797c.199-.035.4-.06.61-.06 1.93 0 3.5 1.57 3.5 3.5 0 .208-.026.41-.061.61l2.682 2.682.834.834a15.623 15.623 0 002.913-3.63 1.004 1.004 0 000-.995c-.638-1.112-4.162-6.686-10.138-6.499a9.361 9.361 0 00-3.228.671l.09.09zm5.355 11.013l1.345 1.344.205.205a9.332 9.332 0 01-3.473.674c-5.863 0-9.263-5.405-9.893-6.503a1.004 1.004 0 010-.995 15.644 15.644 0 012.913-3.629l1.531 1.532 1.986 1.985A3.41 3.41 0 008.5 12c0 1.93 1.57 3.5 3.5 3.5.209 0 .411-.026.61-.062l1.269 1.27.069.07z" fill="#fff"/></mask></svg>