<svg xmlns="http://www.w3.org/2000/svg" viewBox="0 0 60 60"><g transform="translate(-21)"><radialGradient id="a" cx="-241.05" cy="445" r="1.584" gradientTransform="matrix(60 0 0 -60 14514 26662.4)" gradientUnits="userSpaceOnUse"><stop offset="0" stop-color="#e8f54a"/><stop offset="1" stop-color="#004853"/></radialGradient><path d="M70.5 0C76.3 0 81 4.7 81 10.5v39C81 55.3 76.3 60 70.5 60h-39C25.7 60 21 55.3 21 49.5v-39C21 4.7 25.7 0 31.5 0h39zm0 3.9h-39c-3.6 0-6.6 3-6.6 6.6v39c0 3.6 3 6.6 6.6 6.6h39c3.6 0 6.6-3 6.6-6.6v-39c0-3.6-3-6.6-6.6-6.6zM56.6 34.2c1.2 0 2.3.5 3.1 1.3.8.8 1.3 1.9 1.3 3.1 0 1.2-.5 2.3-1.3 3.1-.7.7-1.7 1.2-2.8 1.3H34.4c-1.2 0-2.3-.5-3.1-1.3-.8-.8-1.3-1.9-1.3-3.1 0-1.2.5-2.3 1.3-3.1.7-.7 1.7-1.2 2.8-1.3h22.5zm6.1-7.7c.3 0 .5.1.6.4l8.5 13.9c.2.3.1.7-.2.9-.1.1-.2.1-.3.1h-8.6c-.4 0-.6-.3-.6-.6V27.1c0-.4.3-.6.6-.6zm-25.5 9.7c-.7 0-1.3.3-1.7.7a2.413 2.413 0 000 3.4 2.413 2.413 0 003.4 0 2.413 2.413 0 000-3.4c-.5-.4-1.1-.7-1.7-.7zm16.7 0c-.7 0-1.3.3-1.7.7a2.413 2.413 0 000 3.4 2.413 2.413 0 003.4 0 2.413 2.413 0 000-3.4c-.5-.4-1.1-.7-1.7-.7zM45.8 17l5.7 6v5.8h6.1v1.6h3.5v2.4H31.9v-4h1.9V16.9h12zm-1.6 2.5h-5.5V25H47v-2.4l-2.8-3.1z" fill="url(#a)"/></g></svg>