<svg width="24" height="24" fill="none" xmlns="http://www.w3.org/2000/svg"><path fill-rule="evenodd" clip-rule="evenodd" d="M19.875 10.75H6.527l4.087-4.905a1.124 1.124 0 10-1.728-1.44l-5.625 6.75c-.044.053-.066.115-.099.173-.027.048-.06.088-.08.14-.05.13-.08.265-.08.402L3 11.876l.001.005c0 .137.03.273.081.402.02.052.053.092.08.14.033.058.055.12.099.173l5.625 6.75a1.124 1.124 0 101.728-1.44L6.527 13h13.348a1.125 1.125 0 000-2.25z" fill="#E53935"/><mask id="a" maskUnits="userSpaceOnUse" x="3" y="4" width="18" height="16"><path fill-rule="evenodd" clip-rule="evenodd" d="M19.875 10.75H6.527l4.087-4.905a1.124 1.124 0 10-1.728-1.44l-5.625 6.75c-.044.053-.066.115-.099.173-.027.048-.06.088-.08.14-.05.13-.08.265-.08.402L3 11.876l.001.005c0 .137.03.273.081.402.02.052.053.092.08.14.033.058.055.12.099.173l5.625 6.75a1.124 1.124 0 101.728-1.44L6.527 13h13.348a1.125 1.125 0 000-2.25z" fill="#fff"/></mask></svg>
