<svg width="24" height="24" fill="none" xmlns="http://www.w3.org/2000/svg"><path fill-rule="evenodd" clip-rule="evenodd" d="M17.237 6.44a.739.739 0 110 1.478H6.763a.738.738 0 110-1.477h.201a5.033 5.033 0 012.762-4.493l.417 2.366a.386.386 0 10.76-.134l-.476-2.703A1.01 1.01 0 0111.285 1h1.43c.361 0 .679.19.857.477l-.476 2.703a.386.386 0 10.76.134l.417-2.366a5.035 5.035 0 012.763 4.493h.201zM12 14.8c2.64 0 4.808-3.246 5.042-5.962H6.958C7.19 11.554 9.358 14.8 12 14.8zm6.479 2.457v3.454c.66.29 1.11.954 1.11 1.697v.916c2.41-.688 2.411-1.846 2.411-3.158 0-1.166-1.368-2.209-3.521-2.91zm-12.958 0v3.454c-.66.29-1.11.954-1.11 1.697v.916C2 22.636 2 21.478 2 20.166c0-1.166 1.367-2.209 3.52-2.91zm10.736 3.3v-3.848A24.225 24.225 0 0012 16.346c-1.523 0-2.965.13-4.257.363v3.848h8.514zm-8.854 1.77a.92.92 0 11-1.839 0 .92.92 0 011.84 0zm9.96.92a.92.92 0 100-1.84.92.92 0 000 1.84z" fill="#004853"/></svg>