<svg width="24" height="24" fill="none" xmlns="http://www.w3.org/2000/svg"><path fill-rule="evenodd" clip-rule="evenodd" d="M14.667 21L14.606 21a.999.999 0 01-.92-.8l-1.537-7.566a.999.999 0 00-.781-.781L3.8 10.312a.998.998 0 01-.117-1.927l16-5.332a1.001 1.001 0 011.265 1.264l-5.334 16a.998.998 0 01-.948.684z" fill="#004853"/><mask id="a" maskUnits="userSpaceOnUse" x="3" y="3" width="18" height="19"><path fill-rule="evenodd" clip-rule="evenodd" d="M14.667 21L14.606 21a.999.999 0 01-.92-.8l-1.537-7.566a.999.999 0 00-.781-.781L3.8 10.312a.998.998 0 01-.117-1.927l16-5.332a1.001 1.001 0 011.265 1.264l-5.334 16a.998.998 0 01-.948.684z" fill="#fff"/></mask></svg>