<svg width="20" height="20" fill="none" xmlns="http://www.w3.org/2000/svg"><path fill-rule="evenodd" clip-rule="evenodd" d="M15.833 15a.834.834 0 11-1.667 0 .834.834 0 011.667 0zM10 12.5H3.333l.013-8.333H12.5l-.014 8.333H10zM5.833 15a.834.834 0 11-1.667 0 .834.834 0 011.667 0zm10.834-4.6v2.1h-2.5V8.4l2.5 2zm1.354-1.05l-3.855-3.084v-2.1c0-.919-.677-1.666-1.51-1.666h-9.48c-.832 0-1.51.748-1.51 1.667V12.5c0 .727.428 1.34 1.018 1.568A2.477 2.477 0 002.5 15c0 1.378 1.122 2.5 2.5 2.5s2.5-1.122 2.5-2.5c0-.294-.06-.572-.154-.833h5.308c-.094.261-.154.539-.154.833 0 1.378 1.121 2.5 2.5 2.5 1.378 0 2.5-1.122 2.5-2.5 0-.294-.06-.572-.154-.833h.154c.46 0 .833-.373.833-.834V10a.834.834 0 00-.312-.65z" fill="#CFD8DC"/><mask id="a" maskUnits="userSpaceOnUse" x="1" y="2" width="18" height="16"><path fill-rule="evenodd" clip-rule="evenodd" d="M15.833 15a.834.834 0 11-1.667 0 .834.834 0 011.667 0zM10 12.5H3.333l.013-8.333H12.5l-.014 8.333H10zM5.833 15a.834.834 0 11-1.667 0 .834.834 0 011.667 0zm10.834-4.6v2.1h-2.5V8.4l2.5 2zm1.354-1.05l-3.855-3.084v-2.1c0-.919-.677-1.666-1.51-1.666h-9.48c-.832 0-1.51.748-1.51 1.667V12.5c0 .727.428 1.34 1.018 1.568A2.477 2.477 0 002.5 15c0 1.378 1.122 2.5 2.5 2.5s2.5-1.122 2.5-2.5c0-.294-.06-.572-.154-.833h5.308c-.094.261-.154.539-.154.833 0 1.378 1.121 2.5 2.5 2.5 1.378 0 2.5-1.122 2.5-2.5 0-.294-.06-.572-.154-.833h.154c.46 0 .833-.373.833-.834V10a.834.834 0 00-.312-.65z" fill="#fff"/></mask></svg>