<svg width="24" height="24"  xmlns="http://www.w3.org/2000/svg"><path fill-rule="evenodd" clip-rule="evenodd" d="M17.476 7.572H7.524a.702.702 0 010-1.403h.192A4.781 4.781 0 0110.34 1.9l.396 2.248a.367.367 0 10.723-.127l-.453-2.568A.96.96 0 0111.82 1h1.357a.96.96 0 01.816.453l-.452 2.568a.366.366 0 10.721.128L14.66 1.9a4.784 4.784 0 012.624 4.269h.192a.702.702 0 110 1.403zM12.5 14.111c2.509 0 4.568-3.084 4.79-5.665H7.71c.222 2.58 2.28 5.665 4.79 5.665zm0 1.468c-5.247 0-9.5 1.624-9.5 3.628 0 1.071 0 2.033 1.449 2.697L11 22h3l6.551-.095C22 21.24 22 20.278 22 19.208c0-2.004-4.253-3.63-9.5-3.63z" /></svg>
