<svg width="24" height="24" viewBox="0 0 24 24" fill="none" xmlns="http://www.w3.org/2000/svg">
<path fill-rule="evenodd" clip-rule="evenodd" d="M3.89973 11.5267C1.71273 13.7087 1.31773 17.2297 3.21973 19.6617C5.49773 22.5747 9.74273 22.7657 12.2797 20.2347L13.7047 18.8117C14.0987 18.4187 14.0987 17.7827 13.7047 17.3897C13.3117 16.9967 12.6727 16.9967 12.2797 17.3897L10.8537 18.8117C9.19673 20.4667 6.44173 20.3767 4.90373 18.5397C3.54073 16.9127 3.80073 14.4707 5.30273 12.9717L6.57773 11.6987C6.97173 11.3067 6.97173 10.6687 6.57773 10.2767C6.18473 9.88374 5.54973 9.87973 4.97473 10.4537L3.89973 11.5267ZM9.29303 13.2926L13.293 9.29264C13.684 8.90164 14.316 8.90164 14.707 9.29264C14.902 9.48764 15 9.74364 15 9.99964C15 10.2556 14.902 10.5116 14.707 10.7066L10.707 14.7066C10.316 15.0976 9.68403 15.0976 9.29303 14.7066C8.90203 14.3156 8.90203 13.6836 9.29303 13.2926ZM17.3965 12.2799L18.6675 11.0059C20.1645 9.50493 20.4225 7.05794 19.0655 5.42994C17.5335 3.59094 14.7875 3.49994 13.1345 5.15694L11.7145 6.58193C11.3225 6.97494 10.6865 6.97494 10.2935 6.58193C9.90253 6.18893 9.90253 5.55094 10.2935 5.15694L11.5665 3.88194C13.7325 1.70994 17.2165 1.32894 19.6405 3.20694C22.5735 5.47794 22.7715 9.73794 20.2375 12.2799L18.8175 13.7049C18.4245 14.0979 17.7895 14.0979 17.3965 13.7049C17.0035 13.3109 17.0035 12.6739 17.3965 12.2799Z" fill="#E8F54A"/>
<mask id="mask0" mask-type="alpha" maskUnits="userSpaceOnUse" x="2" y="2" width="20" height="20">
<path fill-rule="evenodd" clip-rule="evenodd" d="M3.89973 11.5267C1.71273 13.7087 1.31773 17.2297 3.21973 19.6617C5.49773 22.5747 9.74273 22.7657 12.2797 20.2347L13.7047 18.8117C14.0987 18.4187 14.0987 17.7827 13.7047 17.3897C13.3117 16.9967 12.6727 16.9967 12.2797 17.3897L10.8537 18.8117C9.19673 20.4667 6.44173 20.3767 4.90373 18.5397C3.54073 16.9127 3.80073 14.4707 5.30273 12.9717L6.57773 11.6987C6.97173 11.3067 6.97173 10.6687 6.57773 10.2767C6.18473 9.88374 5.54973 9.87973 4.97473 10.4537L3.89973 11.5267ZM9.29303 13.2926L13.293 9.29264C13.684 8.90164 14.316 8.90164 14.707 9.29264C14.902 9.48764 15 9.74364 15 9.99964C15 10.2556 14.902 10.5116 14.707 10.7066L10.707 14.7066C10.316 15.0976 9.68403 15.0976 9.29303 14.7066C8.90203 14.3156 8.90203 13.6836 9.29303 13.2926ZM17.3965 12.2799L18.6675 11.0059C20.1645 9.50493 20.4225 7.05794 19.0655 5.42994C17.5335 3.59094 14.7875 3.49994 13.1345 5.15694L11.7145 6.58193C11.3225 6.97494 10.6865 6.97494 10.2935 6.58193C9.90253 6.18893 9.90253 5.55094 10.2935 5.15694L11.5665 3.88194C13.7325 1.70994 17.2165 1.32894 19.6405 3.20694C22.5735 5.47794 22.7715 9.73794 20.2375 12.2799L18.8175 13.7049C18.4245 14.0979 17.7895 14.0979 17.3965 13.7049C17.0035 13.3109 17.0035 12.6739 17.3965 12.2799Z" fill="white"/>
</mask>
<g mask="url(#mask0)">
</g>
</svg>