<svg width="24" height="24" fill="none" xmlns="http://www.w3.org/2000/svg"><path fill-rule="evenodd" clip-rule="evenodd" d="M10.139 15.69l-2.862-3c-.043-.045-.064-.1-.097-.15-.036-.055-.08-.103-.104-.163A1.007 1.007 0 017 12a1.011 1.011 0 01.294-.708l2.999-2.999a.999.999 0 111.414 1.414L10.414 11H16a1 1 0 110 2h-5.663l1.249 1.31a1 1 0 11-1.447 1.38zM21.999 12c0-5.515-4.485-10-10-10C6.487 2 2 6.485 2 12c0 5.514 4.487 10 10 10 5.515 0 10-4.486 10-10z" fill="#E8F54A"/><mask id="a" maskUnits="userSpaceOnUse" x="1" y="2" width="21" height="21"><path fill-rule="evenodd" clip-rule="evenodd" d="M10.139 15.69l-2.862-3c-.043-.045-.064-.1-.097-.15-.036-.055-.08-.103-.104-.163A1.007 1.007 0 017 12a1.011 1.011 0 01.294-.708l2.999-2.999a.999.999 0 111.414 1.414L10.414 11H16a1 1 0 110 2h-5.663l1.249 1.31a1 1 0 11-1.447 1.38zM21.999 12c0-5.515-4.485-10-10-10C6.487 2 2 6.485 2 12c0 5.514 4.487 10 10 10 5.515 0 10-4.486 10-10z" fill="#fff"/></mask></svg>