<svg width="24" height="24" fill="none" xmlns="http://www.w3.org/2000/svg"><path fill-rule="evenodd" clip-rule="evenodd" d="M3 12c0-4.964 4.036-9 9-9s9 4.036 9 9-4.036 9-9 9-9-4.036-9-9zm12.695 3.714a.71.71 0 000-.986L12.985 12l2.729-2.728a.71.71 0 000-.986.71.71 0 00-.986 0L12 11.015 9.29 8.286a.71.71 0 00-.985 0 .71.71 0 000 .986L11.015 12l-2.729 2.71a.71.71 0 000 .985.722.722 0 00.493.208c.17 0 .36-.076.493-.208L12 12.985l2.71 2.729a.722.722 0 00.492.208c.17 0 .36-.076.493-.208z" fill="#E8F54A"/></svg>