<svg width="24" height="24" xmlns="http://www.w3.org/2000/svg"><path fill-rule="evenodd" clip-rule="evenodd" d="M17.965 6.729l-2.694-2.694-1.948 1.949 2.695 2.695 1.947-1.95zM5.09 17.996a1 1 0 01-1.087-1.086l.38-4.17c.041-.457.243-.89.57-1.214l8.995-8.996c.702-.705 1.975-.67 2.716.069l2.738 2.738h.001c.765.767.796 1.985.068 2.715l-8.997 8.997a1.975 1.975 0 01-1.214.569l-4.17.378zM5 20h14c.55 0 1 .45 1 1s-.45 1-1 1H5c-.55 0-1-.45-1-1s.45-1 1-1z" /><mask id="a" maskUnits="userSpaceOnUse" x="3" y="2" width="17" height="20"><path fill-rule="evenodd" clip-rule="evenodd" d="M17.965 6.729l-2.694-2.694-1.948 1.949 2.695 2.695 1.947-1.95zM5.09 17.996a1 1 0 01-1.087-1.086l.38-4.17c.041-.457.243-.89.57-1.214l8.995-8.996c.702-.705 1.975-.67 2.716.069l2.738 2.738h.001c.765.767.796 1.985.068 2.715l-8.997 8.997a1.975 1.975 0 01-1.214.569l-4.17.378zM5 20h14c.55 0 1 .45 1 1s-.45 1-1 1H5c-.55 0-1-.45-1-1s.45-1 1-1z"/></mask></svg>
