<svg width="24" height="24" fill="none" xmlns="http://www.w3.org/2000/svg"><path fill-rule="evenodd" clip-rule="evenodd" d="M13.861 15.69l2.863-3c.043-.045.064-.101.096-.151.037-.054.08-.102.104-.162.05-.121.076-.249.076-.377a1.011 1.011 0 00-.294-.708l-2.998-2.999a.999.999 0 10-1.415 1.414L13.586 11H8a1 1 0 100 2h5.664l-1.25 1.309a1 1 0 101.447 1.381zM2.002 12C2 6.485 6.485 2 12 2c5.514 0 10 4.485 10 10 0 5.514-4.486 10-10 10-5.515 0-10-4.486-10-10z" fill="#004853"/><mask id="a" maskUnits="userSpaceOnUse" x="2" y="2" width="21" height="20"><path fill-rule="evenodd" clip-rule="evenodd" d="M13.861 15.69l2.863-3c.043-.045.064-.101.096-.151.037-.054.08-.102.104-.162.05-.121.076-.249.076-.377a1.011 1.011 0 00-.294-.708l-2.998-2.999a.999.999 0 10-1.415 1.414L13.586 11H8a1 1 0 100 2h5.664l-1.25 1.309a1 1 0 101.447 1.381zM2.002 12C2 6.485 6.485 2 12 2c5.514 0 10 4.485 10 10 0 5.514-4.486 10-10 10-5.515 0-10-4.486-10-10z" fill="#fff"/></mask></svg>