<svg width="20" height="20" fill="none" xmlns="http://www.w3.org/2000/svg"><path fill-rule="evenodd" clip-rule="evenodd" d="M3.333 8.269c0-3.641 2.991-6.603 6.667-6.603 3.676 0 6.667 2.962 6.667 6.603 0 4.561-5.874 9.649-6.124 9.863a.831.831 0 01-1.085 0c-.25-.214-6.125-5.302-6.125-9.863zM10 10.833a2.92 2.92 0 01-2.917-2.917A2.92 2.92 0 0110 4.999a2.92 2.92 0 012.917 2.917A2.92 2.92 0 0110 10.833zm0-4.167c-.689 0-1.25.56-1.25 1.25s.561 1.25 1.25 1.25c.69 0 1.25-.56 1.25-1.25s-.56-1.25-1.25-1.25z" fill="#004853"/><mask id="a" maskUnits="userSpaceOnUse" x="3" y="1" width="14" height="18"><path fill-rule="evenodd" clip-rule="evenodd" d="M3.333 8.269c0-3.641 2.991-6.603 6.667-6.603 3.676 0 6.667 2.962 6.667 6.603 0 4.561-5.874 9.649-6.124 9.863a.831.831 0 01-1.085 0c-.25-.214-6.125-5.302-6.125-9.863zM10 10.833a2.92 2.92 0 01-2.917-2.917A2.92 2.92 0 0110 4.999a2.92 2.92 0 012.917 2.917A2.92 2.92 0 0110 10.833zm0-4.167c-.689 0-1.25.56-1.25 1.25s.561 1.25 1.25 1.25c.69 0 1.25-.56 1.25-1.25s-.56-1.25-1.25-1.25z" fill="#fff"/></mask></svg>