<svg width="24" height="24"  xmlns="http://www.w3.org/2000/svg"><path fill-rule="evenodd" clip-rule="evenodd" d="M20 6h1c.55 0 1 .45 1 1s-.45 1-1 1h-1v11c0 1.654-1.346 3-3 3H7c-1.654 0-3-1.346-3-3V8H3c-.55 0-1-.45-1-1s.45-1 1-1h5V4.328C8 3.044 9.121 2 10.5 2h3C14.879 2 16 3.044 16 4.328V6h4zm-9.5-2c-.286 0-.5.173-.5.328V6h4V4.328c0-.155-.214-.328-.5-.328h-3zM15 17c.55 0 1-.45 1-1v-4c0-.55-.45-1-1-1s-1 .45-1 1v4c0 .55.45 1 1 1zm-5-1c0 .55-.45 1-1 1s-1-.45-1-1v-4c0-.55.45-1 1-1s1 .45 1 1v4z"/><mask id="a" maskUnits="userSpaceOnUse" x="2" y="2" width="20" height="20"><path fill-rule="evenodd" clip-rule="evenodd" d="M20 6h1c.55 0 1 .45 1 1s-.45 1-1 1h-1v11c0 1.654-1.346 3-3 3H7c-1.654 0-3-1.346-3-3V8H3c-.55 0-1-.45-1-1s.45-1 1-1h5V4.328C8 3.044 9.121 2 10.5 2h3C14.879 2 16 3.044 16 4.328V6h4zm-9.5-2c-.286 0-.5.173-.5.328V6h4V4.328c0-.155-.214-.328-.5-.328h-3zM15 17c.55 0 1-.45 1-1v-4c0-.55-.45-1-1-1s-1 .45-1 1v4c0 .55.45 1 1 1zm-5-1c0 .55-.45 1-1 1s-1-.45-1-1v-4c0-.55.45-1 1-1s1 .45 1 1v4z" fill="#fff"/></mask></svg>
